# xmcd
#
# Track frame offsets: 
#        150
#        27571
#        52137
#        80159
#        101173
#        120822
#        144114
#        159764
#        180378
#        201268
#
# Disc length: 3091 seconds
#
# Revision: 0
# Processed by: cddbd v1.5.2PL0 Copyright (c) Steve Scherf et al.
# Submitted via: ExactAudioCopy v0.99pb3
#
DISCID=7e0c110a
DTITLE=Faith In The Distance - Coastal Madness
DYEAR=2007
DGENRE=Blues
TTITLE0=Coastal Madness
TTITLE1=Murwillimba
TTITLE2=Age Of The Pool
TTITLE3=Who Do We Trust
TTITLE4=Choose To Fly
TTITLE5=Look At The Moon
TTITLE6=Southbound
TTITLE7=All The Way
TTITLE8=Desert Sky
TTITLE9=Faith In The Distance
EXTD=
EXTT0=
EXTT1=
EXTT2=
EXTT3=
EXTT4=
EXTT5=
EXTT6=
EXTT7=
EXTT8=
EXTT9=
PLAYORDER=
